<?xml version="1.0" encoding="UTF-8"?>
<!DOCTYPE svg PUBLIC "-//W3C//DTD SVG 1.1//EN" "http://www.w3.org/Graphics/SVG/1.1/DTD/svg11.dtd">
<!-- Creator: CorelDRAW -->
<svg xmlns="http://www.w3.org/2000/svg" xml:space="preserve" width="5000px" height="5000px" version="1.1" style="shape-rendering:geometricPrecision; text-rendering:geometricPrecision; image-rendering:optimizeQuality; fill-rule:evenodd; clip-rule:evenodd"
viewBox="0 0 4289.59 4289.59"
 xmlns:xlink="http://www.w3.org/1999/xlink"
 xmlns:xodm="http://www.corel.com/coreldraw/odm/2003">
 <defs>
  <style type="text/css">
   <![CDATA[
    .fil0 {fill:#00C24E}
   ]]>
  </style>
 </defs>
 <g id="Слой_x0020_1">
  <metadata id="CorelCorpID_0Corel-Layer"/>
  <path class="fil0" d="M0 1481.7c0.2,144.76 3.59,238.82 47.2,397.84 18.51,67.48 39.63,135.28 68.41,199.69 65.45,146.48 133.34,265.13 239.08,386.49 112.11,128.68 240.96,243.53 391.31,327.19 166.89,92.86 339.59,158.28 530.34,184.6 182.43,25.17 359.72,19.77 538.71,-18.57 203.69,-43.62 402.7,-133.19 568.23,-257.52 14.68,-11.03 28.37,-22.93 43.91,-31.15l360.16 358.34c-5.16,8.14 -10.53,11.51 -17.05,20.52 -45.55,62.97 -40.71,132.98 5.62,194.67 21.12,28.13 699.29,701.48 765.67,767.86l244.86 244.86c23.76,23.76 25.53,31.1 40.84,33.07l69.09 0c12.72,0 186.95,-181.59 199.28,-193.93 12,-11.99 193.93,-186.71 193.93,-199.28l0 -24.03c-0.71,-28.49 -7.95,-25.03 -67.03,-84.11l-920.47 -920.47c-50.95,-50.96 -127.13,-151.2 -242.26,-97.49 -24.16,11.27 -36.39,28.62 -49.97,32.25l-356.58 -354.77c9.39,-14.47 20.32,-27.36 31.29,-42.02 137.28,-183.46 218.21,-352.19 272.38,-581.95 54.18,-229.79 47.58,-538.36 -27.92,-763.5l-22.42 -66.95c-27.12,-81.44 -42.52,-99.8 -65.23,-156.4 -17.21,-42.87 -92.47,-161.57 -116.74,-197.83 -29.85,-44.59 -63.69,-83.64 -96.73,-124.89 -7.47,-9.33 -15.07,-14.63 -22.52,-23.96 -75.72,-94.85 -234.32,-216.51 -343.28,-282.28 -63.9,-38.57 -111.12,-60.79 -177.99,-90.12 -76.34,-33.48 -116.9,-45.09 -199.01,-69.08 -76.74,-22.42 -229.95,-48.78 -312.26,-48.78l-46.95 0c-147.09,0.14 -256.45,2.89 -411.05,46.02 -131.66,36.73 -263.17,87.43 -376.46,156.17 -20,12.14 -36.42,22.58 -55.48,33.89 -9.42,5.6 -16.75,11.97 -25.39,17.5 -37.8,24.19 -144.62,107.26 -175.89,138.69l-107.8 110.24c-8.12,10.46 -12.79,13.94 -21.46,25.01l-40.26 49.11c-77.28,94.88 -148.45,223.32 -196.73,335.9 -15.39,35.88 -37.97,93.56 -48.22,130.51 -21.83,78.75 -37.91,128.93 -51.35,216.75 -7.88,51.44 -15.81,106.55 -15.81,162.92l0 58.99zm1500.66 -1263.38c699.53,0 1266.61,567.08 1266.61,1266.61 0,699.53 -567.08,1266.61 -1266.61,1266.61 -699.53,0 -1266.61,-567.08 -1266.61,-1266.61 0,-699.53 567.08,-1266.61 1266.61,-1266.61z"/>
 </g>
</svg>
